# xmcd
# Copyright (C) 1995-1998 Ti Kan
#
# Track frame offsets:
#       150
#       6240
#       22750
#       42868
#       60486
#       79937
#       100633
#       122891
#       141895
#       165998
#       188440
#       210073
#       227220
#       245042
#
# Disc length: 3560 seconds
#
# Revision: 0
# Processed by: cddbd v1.5.1PL0 Copyright (c) Steve Scherf et al.
# Submitted via: CD-Transfer v1.0
#
DISCID=a40de60e
DTITLE=Sesto Senso - 
DYEAR=99
DGENRE=
TTITLE0=Intro
TTITLE1=Apri la mente
TTITLE2=To be real
TTITLE3=Sei l'unica
TTITLE4=Resta qui
TTITLE5=S.O.S. spazio
TTITLE6=Sonnenschein
TTITLE7=Sono un' emigrato
TTITLE8=Attento a cosa fai
TTITLE9=Un amore passato
TTITLE10=Bum, Bum, Bum
TTITLE11=Bitte tu's nicht
TTITLE12=Sono un' emigrato
TTITLE13=Se avessi solo un giorno
EXTD=
EXTT0=
EXTT1=
EXTT2=
EXTT3=
EXTT4=
EXTT5=
EXTT6=
EXTT7=
EXTT8=
EXTT9=
EXTT10=
EXTT11=
EXTT12=
EXTT13=
PLAYORDER=
